<svg xmlns="http://www.w3.org/2000/svg" viewBox="0 0 100 100" width="100" height="100">
  <defs>
    <!-- Navy: rotate(-28). Vesiviiva local-tilassa: lx=-50->ly=-3.2, lx=150->ly=103.2 -->
    <clipPath id="nc_above">
      <polygon points="-50,-200 150,-200 150,103.2 -50,-3.2"/>
    </clipPath>
    <clipPath id="nc_below">
      <polygon points="-50,-3.2 150,103.2 150,200 -50,200"/>
    </clipPath>
  </defs>

  <g transform="rotate(-28, 50, 58) translate(0, 8)">

    <!-- YLÄOSA -->
    <g clip-path="url(#nc_above)">
      <path d="M50 6 C64 10 73 23 75 40 L75 70 C75 78 64 87 50 89 C36 87 25 78 25 70 L25 40 C27 23 36 10 50 6 Z"
            fill="#daeef9" stroke="#5599cc" stroke-width="1.5"/>
      <line x1="50" y1="8" x2="50" y2="87" stroke="#99c4e8" stroke-width="0.8" stroke-dasharray="4,2"/>
      <line x1="41" y1="13" x2="37" y2="80" stroke="#99c4e8" stroke-width="0.6" stroke-dasharray="3,3"/>
      <line x1="59" y1="13" x2="63" y2="80" stroke="#99c4e8" stroke-width="0.6" stroke-dasharray="3,3"/>
      <path d="M25 56 Q38 51 50 57 Q62 62 75 56" fill="none" stroke="#3377aa" stroke-width="2.5"/>
      <line x1="40" y1="53" x2="37" y2="59" stroke="#2266aa" stroke-width="1.5"/>
      <line x1="50" y1="55" x2="48" y2="61" stroke="#2266aa" stroke-width="1.5"/>
      <line x1="60" y1="54" x2="63" y2="59" stroke="#2266aa" stroke-width="1.5"/>
      <circle cx="50" cy="44" r="5" fill="#5599cc" stroke="#3377aa" stroke-width="1"/>
      <circle cx="50" cy="44" r="2.5" fill="#f0d060"/>
      <line x1="50" y1="44" x2="22" y2="26" stroke="#7799bb" stroke-width="3" stroke-linecap="round"/>
      <line x1="50" y1="44" x2="22" y2="26" stroke="#aaccdd" stroke-width="1.5" stroke-linecap="round"/>
      <path d="M44 40 Q32 32 22 26 Q26 37 36 42 Z" fill="#1a1f8c" opacity="0.8"/>
      <line x1="22" y1="34" x2="38" y2="34" stroke="white" stroke-width="2" opacity="0.6"/>
      <line x1="30" y1="26" x2="30" y2="42" stroke="white" stroke-width="2" opacity="0.6"/>
      <line x1="22" y1="34" x2="38" y2="34" stroke="#cc2020" stroke-width="1" opacity="0.5"/>
      <line x1="30" y1="26" x2="30" y2="42" stroke="#cc2020" stroke-width="1" opacity="0.5"/>
      <path d="M46 6 Q50 2 54 6" fill="none" stroke="#f0d060" stroke-width="2"/>
      <circle cx="50" cy="7" r="2" fill="#f0d060"/>
      <path d="M36 87 Q50 94 64 87" fill="none" stroke="#f0d060" stroke-width="2"/>
      <path d="M50 6 C64 10 73 23 75 40 L75 70 C75 78 64 87 50 89" fill="none" stroke="#f0d060" stroke-width="0.8" opacity="0.6"/>
      <path d="M50 6 C36 10 27 23 25 40 L25 70 C25 78 36 87 50 89" fill="none" stroke="#f0d060" stroke-width="0.8" opacity="0.6"/>
      <rect x="13" y="30" width="14" height="6" rx="3" fill="#555" stroke="#222" stroke-width="1"/>
      <rect x="11" y="30.5" width="4" height="5" rx="1.5" fill="#444"/>
      <rect x="13" y="42" width="14" height="6" rx="3" fill="#555" stroke="#222" stroke-width="1"/>
      <rect x="11" y="42.5" width="4" height="5" rx="1.5" fill="#444"/>
      <rect x="13" y="54" width="14" height="6" rx="3" fill="#555" stroke="#222" stroke-width="1"/>
      <rect x="11" y="54.5" width="4" height="5" rx="1.5" fill="#444"/>
      <rect x="73" y="30" width="14" height="6" rx="3" fill="#555" stroke="#222" stroke-width="1"/>
      <rect x="83" y="30.5" width="4" height="5" rx="1.5" fill="#444"/>
      <rect x="73" y="42" width="14" height="6" rx="3" fill="#555" stroke="#222" stroke-width="1"/>
      <rect x="83" y="42.5" width="4" height="5" rx="1.5" fill="#444"/>
      <rect x="73" y="54" width="14" height="6" rx="3" fill="#555" stroke="#222" stroke-width="1"/>
      <rect x="83" y="54.5" width="4" height="5" rx="1.5" fill="#444"/>
      <rect x="24" y="31" width="5" height="4" rx="1" fill="#3377aa"/>
      <rect x="24" y="43" width="5" height="4" rx="1" fill="#3377aa"/>
      <rect x="24" y="55" width="5" height="4" rx="1" fill="#3377aa"/>
      <rect x="71" y="31" width="5" height="4" rx="1" fill="#3377aa"/>
      <rect x="71" y="43" width="5" height="4" rx="1" fill="#3377aa"/>
      <rect x="71" y="55" width="5" height="4" rx="1" fill="#3377aa"/>
      <circle cx="64" cy="35" r="5" fill="#e85020" opacity="0.85"/>
      <circle cx="68" cy="30" r="4" fill="#f09020" opacity="0.75"/>
      <circle cx="63" cy="28" r="3.5" fill="#cc3010" opacity="0.65"/>
      <circle cx="66" cy="23" r="4.5" fill="#666" opacity="0.5"/>
      <circle cx="63" cy="18" r="4" fill="#555" opacity="0.4"/>
      <circle cx="68" cy="13" r="3" fill="#777" opacity="0.3"/>
      <path d="M50 6 C64 10 73 23 75 40 L75 70 C75 78 64 87 50 89 C36 87 25 78 25 70 L25 40 C27 23 36 10 50 6 Z"
            fill="none" stroke="#3377aa" stroke-width="1.5"/>
    </g>

    <!-- ALAOSA (veden alla) -->
    <g clip-path="url(#nc_below)">
      <path d="M50 6 C64 10 73 23 75 40 L75 70 C75 78 64 87 50 89 C36 87 25 78 25 70 L25 40 C27 23 36 10 50 6 Z"
            fill="#7aaac8" stroke="#3377aa" stroke-width="1.5"/>
      <path d="M50 6 C64 10 73 23 75 40 L75 70 C75 78 64 87 50 89 C36 87 25 78 25 70 L25 40 C27 23 36 10 50 6 Z"
            fill="#083850" opacity="0.65"/>
      <rect x="13" y="66" width="14" height="6" rx="3" fill="#1a2a3a" stroke="#0a1020" stroke-width="1"/>
      <rect x="11" y="66.5" width="4" height="5" rx="1.5" fill="#0a1a2a"/>
      <rect x="73" y="66" width="14" height="6" rx="3" fill="#1a2a3a" stroke="#0a1020" stroke-width="1"/>
      <rect x="83" y="66.5" width="4" height="5" rx="1.5" fill="#0a1a2a"/>
      <path d="M50 6 C64 10 73 23 75 40 L75 70 C75 78 64 87 50 89 C36 87 25 78 25 70 L25 40 C27 23 36 10 50 6 Z"
            fill="none" stroke="#0a2a3a" stroke-width="1.5"/>
    </g>
  </g>

  <!-- Vesiviiva -->
  <path d="M0 58 Q10 56 20 58 Q30 60 40 58 Q50 56 60 58 Q70 60 80 58 Q90 56 100 58"
        fill="none" stroke="#4ab0d0" stroke-width="2" opacity="0.95"/>
  <path d="M0 62 Q15 60 30 62 Q45 64 60 62 Q75 60 100 62"
        fill="none" stroke="#2a8aab" stroke-width="1" opacity="0.5"/>

  <!-- Romua -->
  <line x1="88" y1="52" x2="95" y2="46" stroke="#aaccdd" stroke-width="2" stroke-linecap="round" opacity="0.7"/>
  <rect x="5" y="50" width="8" height="3" rx="1" fill="#daeef9" opacity="0.6" transform="rotate(15,5,50)"/>
  <circle cx="92" cy="64" r="2" fill="#daeef9" opacity="0.5"/>
  <circle cx="16" cy="53" r="2" fill="#f0d060" opacity="0.6"/>
</svg>
